<svg xmlns="http://www.w3.org/2000/svg" xmlns:xlink="http://www.w3.org/1999/xlink" xmlns:svgjs="http://svgjs.dev/svgjs" version="1.1" viewBox="0 0 1000 1000"><rect width="1000" height="1000" fill="#ffffff"/><g transform="matrix(0.7,0,0,0.7,149.57575757575756,317.70552664583386)"><svg xmlns="http://www.w3.org/2000/svg" xmlns:xlink="http://www.w3.org/1999/xlink" viewBox="0 0 396 207" data-background-color="#e55472" preserveAspectRatio="xMidYMid meet" height="522" width="1000"><defs/><g id="tight-bounds" transform="matrix(1,0,0,1,0.2400000000000091,-0.2297313033948285)"><svg viewBox="0 0 395.52 207.4593624291531" height="207.4593624291531" width="395.52"><g><svg viewBox="0 0 395.52 207.4593624291531" height="207.4593624291531" width="395.52"><g transform="matrix(1,0,0,1,0,136.01355225707016)"><svg viewBox="0 0 395.52 71.44581017208294" height="71.44581017208294" width="395.52"><g><svg viewBox="0 0 395.52 71.44581017208294" height="71.44581017208294" width="395.52"><g><svg viewBox="0 0 395.52 71.44581017208294" height="71.44581017208294" width="395.52"><g transform="matrix(1,0,0,1,0,0)"><svg width="395.52" viewBox="-2.0974106788635254 -37.73459243774414 306.6775817871094 55.39751434326172" height="71.44581017208294" data-palette-color="#ffffff"><path d="M21.925 14.855l-17.111 2.808-6.911-42.117 8.427-1.383 5.737 34.963 8.684-1.425zM30.916 13.632l-8.212 1.135-1.762-42.842 14.324-1.98 9.875 41.721-8.024 1.109-1.53-6.764-5.121 0.708zM28.781-21.829l1.397 21.723 3.834-0.53-4.845-21.247zM47.239 11.44l-4.736-42.417 11.211-1.251c3.386-0.378 5.926 0.449 7.622 2.479 1.695 2.024 2.778 5.144 3.248 9.358v0c0.47 4.214 0.182 7.463-0.864 9.746-1.046 2.284-3.233 3.611-6.558 3.982v0l-3.459 0.386 1.874 16.786zM52.849-13.929l0.497-0.056c1.02-0.114 1.748-0.39 2.181-0.827 0.435-0.431 0.689-1.006 0.763-1.725 0.067-0.725 0.026-1.747-0.12-3.066v0c-0.198-1.776-0.541-3.039-1.027-3.789-0.479-0.745-1.311-1.051-2.498-0.919v0l-0.944 0.105zM82.269 7.918l-8.518 0.733-2.957-34.353-5.042 0.434-0.703-8.17 18.611-1.602 0.703 8.17-5.051 0.435zM99.457 7.131c-3.433 0.214-6.11-0.674-8.031-2.665-1.914-1.985-2.99-4.88-3.227-8.686v0l-1.265-20.28c-0.229-3.666 0.49-6.49 2.157-8.471 1.673-1.981 4.227-3.079 7.66-3.293v0c3.44-0.215 6.11 0.557 8.01 2.316 1.906 1.758 2.974 4.47 3.202 8.136v0l1.265 20.281c0.239 3.839-0.471 6.856-2.131 9.05-1.653 2.194-4.2 3.398-7.64 3.612zM98.969-0.703c0.765-0.048 1.257-0.412 1.475-1.094 0.225-0.675 0.3-1.608 0.226-2.8v0l-1.299-20.829c-0.058-0.925-0.228-1.669-0.51-2.233-0.282-0.564-0.806-0.821-1.571-0.774v0c-1.417 0.088-2.059 1.207-1.925 3.357v0l1.296 20.779c0.076 1.224 0.28 2.14 0.612 2.748 0.339 0.613 0.904 0.895 1.696 0.846zM112.883 5.98l-1.501-42.654 11.273-0.396c3.405-0.12 5.875 0.897 7.412 3.051 1.536 2.147 2.379 5.34 2.529 9.577v0c0.149 4.237-0.385 7.455-1.602 9.652-1.217 2.197-3.498 3.355-6.842 3.473v0l-3.478 0.122 0.594 16.88zM120.403-18.89l0.5-0.017c1.026-0.036 1.772-0.256 2.238-0.66 0.466-0.397 0.764-0.951 0.892-1.662 0.121-0.718 0.159-1.74 0.113-3.066v0c-0.063-1.786-0.308-3.071-0.737-3.856-0.421-0.779-1.228-1.148-2.42-1.106v0l-0.949 0.034zM144.177 5.18l-8.34 0.072-0.366-42.679 8.79-0.075 4.105 20.386-0.175-20.42 8.24-0.07 0.365 42.678-8.34 0.072-4.462-21.323zM168.847 5.714c-3.079-0.06-5.351-1.191-6.815-3.393-1.464-2.196-2.153-5.496-2.067-9.902v0l0.359-18.377c0.077-3.939 1.012-6.905 2.804-8.897 1.799-1.985 4.435-2.944 7.907-2.876v0c2.819 0.055 4.995 0.661 6.526 1.817 1.538 1.157 2.582 2.818 3.134 4.983 0.558 2.165 0.804 4.937 0.737 8.315v0l-8.348-0.162 0.075-3.83c0.02-1.026-0.104-1.822-0.374-2.387-0.276-0.572-0.777-0.865-1.503-0.88v0c-1.62-0.032-2.45 1.012-2.491 3.132v0l-0.404 20.666c-0.025 1.293 0.119 2.273 0.433 2.939 0.32 0.673 0.894 1.018 1.72 1.034v0c0.827 0.016 1.413-0.306 1.759-0.966 0.346-0.653 0.532-1.627 0.557-2.92v0l0.12-6.108-2.29-0.045 0.144-7.349 10.438 0.204-0.485 24.835-3.429-0.067-1.37-3.607c-1.578 2.623-3.957 3.904-7.137 3.841zM190.787 6.029l-8.281-0.394 6.145-42.436 14.444 0.687 2.036 42.826-8.091-0.385-0.261-6.931-5.164-0.246zM195.208-29.221l-2.62 21.61 3.865 0.184-0.855-21.775zM215.55 7.49l-8.318-0.615 3.149-42.564 8.767 0.649 2.412 20.654 1.507-20.364 8.217 0.608-3.149 42.563-8.317-0.615-2.692-21.618zM239.688 9.609l-8.297-0.848 4.338-42.459 8.744 0.894 1.835 20.713 2.075-20.314 8.197 0.837-4.337 42.459-8.297-0.847-2.087-21.685zM264.15 12.857c-3.054-0.399-5.187-1.773-6.4-4.124-1.213-2.344-1.535-5.7-0.964-10.069v0l2.381-18.225c0.51-3.907 1.766-6.751 3.767-8.534 2.007-1.775 4.732-2.438 8.176-1.988v0c2.796 0.365 4.892 1.207 6.286 2.525 1.401 1.319 2.256 3.085 2.566 5.297 0.316 2.213 0.255 4.995-0.183 8.347v0l-8.28-1.082 0.496-3.797c0.133-1.018 0.097-1.823-0.108-2.415-0.211-0.599-0.677-0.946-1.397-1.039v0c-1.606-0.21-2.547 0.736-2.821 2.838v0l-2.678 20.496c-0.168 1.282-0.132 2.272 0.107 2.969 0.244 0.704 0.776 1.11 1.596 1.217v0c0.82 0.107 1.438-0.148 1.854-0.766 0.416-0.611 0.708-1.558 0.876-2.841v0l0.791-6.059-2.271-0.296 0.952-7.288 10.352 1.352-3.217 24.631-3.401-0.445-0.964-3.736c-1.857 2.433-4.363 3.444-7.516 3.032zM288.869 16.45c-3.398-0.538-5.817-1.988-7.259-4.349-1.436-2.354-1.856-5.414-1.26-9.18v0l3.178-20.07c0.575-3.628 1.891-6.228 3.949-7.798 2.064-1.57 4.795-2.086 8.193-1.548v0c3.404 0.539 5.842 1.874 7.313 4.003 1.478 2.131 1.93 5.01 1.356 8.639v0l-3.178 20.07c-0.602 3.799-1.951 6.589-4.049 8.369-2.091 1.782-4.839 2.403-8.243 1.864zM290.097 8.697c0.757 0.12 1.316-0.129 1.677-0.747 0.367-0.61 0.643-1.505 0.83-2.683v0l3.264-20.614c0.145-0.915 0.141-1.679-0.012-2.29-0.153-0.611-0.608-0.977-1.365-1.097v0c-1.403-0.222-2.272 0.73-2.609 2.857v0l-3.256 20.564c-0.192 1.212-0.192 2.15-0.001 2.815 0.197 0.672 0.688 1.071 1.472 1.195z" opacity="1" transform="matrix(1,0,0,1,0,0)" fill="#000000" class="undefined-text-0" data-fill-palette-color="primary" id="text-0"/></svg></g></svg></g></svg></g></svg></g><g transform="matrix(1,0,0,1,135.87742092598697,0)"><svg viewBox="0 0 123.76515814802606 115.59932085843019" height="115.59932085843019" width="123.76515814802606"><g><svg xmlns="http://www.w3.org/2000/svg" xmlns:xlink="http://www.w3.org/1999/xlink" version="1.1" x="0" y="0" viewBox="7.184000015258789 10.008000373840332 85.63400268554688 79.98400115966797" enable-background="new 0 0 100 100" xml:space="preserve" height="115.59932085843019" width="123.76515814802606" class="icon-icon-0" data-fill-palette-color="accent" id="icon-0"><path d="M85.311 55.058V15.451c0-3.006-2.437-5.443-5.441-5.443H20.132c-3.007 0-5.442 2.438-5.442 5.443v39.607L7.184 84.55c0 0.59 0.095 1.156 0.268 1.688 0.711 2.18 2.758 3.754 5.174 3.754h74.75c2.416 0 4.463-1.574 5.174-3.754 0.173-0.531 0.268-1.098 0.268-1.688L85.311 55.058zM19.839 19.216V14.92h4.654 51.013 4.654v4.296 31.509H19.839V19.216zM76.411 78.249H23.589c-2.257 0-4.086-1.829-4.086-4.086l4.134-18.524h52.727l4.134 18.524C80.497 76.419 78.667 78.249 76.411 78.249z" fill="#000000" data-fill-palette-color="accent"/></svg></g></svg></g><g/></svg></g></svg><rect width="395.52" height="207.4593624291531" fill="none" stroke="none" visibility="hidden"/></g></svg></g></svg>