<svg xmlns="http://www.w3.org/2000/svg" version="1.1" xmlns:xlink="http://www.w3.org/1999/xlink" xmlns:svgjs="http://svgjs.dev/svgjs" width="1000" height="161" viewBox="0 0 1000 161"><g transform="matrix(1,0,0,1,-0.6060606060606233,0.5221599895846651)"><svg viewBox="0 0 396 64" data-background-color="#ffffff" preserveAspectRatio="xMidYMid meet" height="161" width="1000" xmlns="http://www.w3.org/2000/svg" xmlns:xlink="http://www.w3.org/1999/xlink"><defs></defs><g id="tight-bounds" transform="matrix(1,0,0,1,0.2400000000000091,-0.20756670393427612)"><svg viewBox="0 0 395.52 64.41513340786858" height="64.41513340786858" width="395.52"><g><svg viewBox="0 0 492.4995754112567 80.20941002587665" height="64.41513340786858" width="395.52"><g transform="matrix(1,0,0,1,96.97957541125677,22.34541840038545)"><svg viewBox="0 0 395.52 35.51857322510575" height="35.51857322510575" width="395.52"><g><svg viewBox="0 0 395.52 35.51857322510575" height="35.51857322510575" width="395.52"><g><svg viewBox="0 0 395.52 35.51857322510575" height="35.51857322510575" width="395.52"><g transform="matrix(1,0,0,1,0,0)"><svg width="395.52" viewBox="5.739999771118164 -37.869998931884766 427.07000732421875 38.36000061035156" height="35.51857322510575" data-palette-color="#e55472"><g class="undefined-text-0" data-fill-palette-color="primary" id="text-0"><path d="M5.74 0L5.74-37.35 9.89-37.35 9.89-3.59 24.68-3.59 24.68 0 5.74 0ZM26.24 0L38.47-37.35 44.16-37.35 57.22 0 52.81 0 49.09-10.96 34.06-10.96 30.54 0 26.24 0ZM35.18-14.45L47.92-14.45 41.33-34.06 40.57-31.27 35.18-14.45ZM78.68-11.72L78.68-11.72Q77.68-11.67 75.18-11.67 72.68-11.67 68.26-12.33L68.26-12.33 68.26 0 64.11 0 64.11-37.21Q71.21-37.87 78.24-37.87L78.24-37.87Q84.15-37.87 86.52-35.21L86.52-35.21Q88.52-32.96 88.52-27.78L88.52-27.78 88.52-24.9Q88.52-20.9 87.64-18.07L87.64-18.07Q85.76-12.16 78.68-11.72ZM78.41-34.35L78.41-34.35Q71.72-34.35 68.26-34.08L68.26-34.08 68.26-15.77Q72.53-15.21 75.86-15.21 79.19-15.21 80.65-15.69 82.1-16.16 82.91-17.29L82.91-17.29Q84.27-19.19 84.27-24.85L84.27-24.85 84.27-27.88Q84.27-31.37 82.91-32.86L82.91-32.86Q81.59-34.35 78.41-34.35ZM101.9 0L101.9-33.74 91.94-33.74 91.94-37.35 116.35-37.35 116.35-33.74 106.05-33.74 106.05 0 101.9 0ZM136.2 0.49L134.68 0.49Q125.99 0.49 123.21-4.98L123.21-4.98Q121.57-8.15 121.28-13.45L121.28-13.45Q121.16-15.94 121.16-18.87 121.16-21.8 121.33-24.43 121.5-27.05 122-29.17 122.5-31.3 123.42-32.92 124.33-34.55 125.82-35.64L125.82-35.64Q128.9-37.84 134.68-37.84L134.68-37.84 136.2-37.84Q145.25-37.84 147.79-32.96L147.79-32.96Q149.38-29.91 149.57-24.46L149.57-24.46Q149.67-21.8 149.67-18.84 149.67-15.87 149.53-13.37 149.38-10.86 148.92-8.74 148.45-6.62 147.56-4.91 146.67-3.2 145.16-2L145.16-2Q142.03 0.49 136.2 0.49L136.2 0.49ZM134.68-3.03L136.15-3.03Q138.83-3.03 140.6-3.61 142.37-4.2 143.4-5.66L143.4-5.66Q145.3-8.37 145.3-16.06L145.3-16.06 145.3-18.7Q145.3-22.39 145.11-25.27 144.91-28.15 144.06-30.13L144.06-30.13Q142.3-34.23 136.44-34.23L136.44-34.23 134.39-34.23Q128.43-34.23 126.77-30.4L126.77-30.4Q125.72-27.95 125.62-24.63 125.53-21.31 125.53-18.7L125.53-18.7 125.53-16.06Q125.53-8.86 127.68-5.91L127.68-5.91Q129.75-3.03 134.68-3.03L134.68-3.03ZM174.43-11.72L174.43-11.72Q173.43-11.67 170.92-11.67 168.42-11.67 164-12.33L164-12.33 164 0 159.85 0 159.85-37.21Q166.96-37.87 173.99-37.87L173.99-37.87Q179.89-37.87 182.26-35.21L182.26-35.21Q184.26-32.96 184.26-27.78L184.26-27.78 184.26-24.9Q184.26-20.9 183.39-18.07L183.39-18.07Q181.51-12.16 174.43-11.72ZM174.16-34.35L174.16-34.35Q167.47-34.35 164-34.08L164-34.08 164-15.77Q168.27-15.21 171.61-15.21 174.94-15.21 176.39-15.69 177.84-16.16 178.65-17.29L178.65-17.29Q180.02-19.19 180.02-24.85L180.02-24.85 180.02-27.88Q180.02-31.37 178.65-32.86L178.65-32.86Q177.33-34.35 174.16-34.35ZM193.15 0L193.15-37.35 196.44-37.35 213.63-10.21 215.85-5.59 215.32-10.72 215.32-37.35 219.1-37.35 219.1 0 215.61 0 198.54-27.08 196.4-31.27 196.93-26.29 196.93 0 193.15 0ZM254.3-36.06L253.33-32.28Q247.44-34.33 242.02-34.33L242.02-34.33Q236.43-34.33 234.75-29.74L234.75-29.74Q233.75-27.03 233.64-23.57 233.53-20.12 233.53-17.6L233.53-17.6 233.53-15.19Q233.53-7.4 236.14-4.86L236.14-4.86Q237.7-3.34 240.31-3.08L240.31-3.08Q241.54-2.93 242.83-2.93 244.12-2.93 245.33-3.06 246.54-3.2 247.64-3.42L247.64-3.42Q249.86-3.86 250.96-4.39L250.96-4.39 250.96-15.92 243.42-15.92 243.42-19.29 255.04-19.29 255.04-2.56Q252.74-0.83 246.91 0.15L246.91 0.15Q244.88 0.49 242.29 0.49 239.7 0.49 237.54-0.04 235.38-0.56 233.88-1.57 232.38-2.59 231.45-4.1 230.52-5.62 230.01-7.59L230.01-7.59Q229.18-10.91 229.18-15.78 229.18-20.65 229.35-23.47 229.52-26.29 230.02-28.58 230.52-30.86 231.43-32.59 232.33-34.33 233.8-35.5L233.8-35.5Q236.77-37.84 242.29-37.84L242.29-37.84Q248.59-37.84 253.06-36.45L253.06-36.45 254.3-36.06ZM259.38 0L271.61-37.35 277.3-37.35 290.36 0 285.94 0 282.23-10.96 267.19-10.96 263.68 0 259.38 0ZM268.31-14.45L281.06-14.45 274.47-34.06 273.71-31.27 268.31-14.45ZM297.24 0L297.24-37.35 300.54-37.35 317.73-10.21 319.95-5.59 319.41-10.72 319.41-37.35 323.2-37.35 323.2 0 319.7 0 302.64-27.08 300.49-31.27 301.03-26.29 301.03 0 297.24 0ZM334.74 0L334.74-37.35 338.04-37.35 355.22-10.21 357.45-5.59 356.91-10.72 356.91-37.35 360.69-37.35 360.69 0 357.2 0 340.14-27.08 337.99-31.27 338.52-26.29 338.52 0 334.74 0ZM395.9-36.06L394.92-32.28Q389.04-34.33 383.62-34.33L383.62-34.33Q378.02-34.33 376.34-29.74L376.34-29.74Q375.34-27.03 375.23-23.57 375.12-20.12 375.12-17.6L375.12-17.6 375.12-15.19Q375.12-7.4 377.73-4.86L377.73-4.86Q379.29-3.34 381.91-3.08L381.91-3.08Q383.13-2.93 384.42-2.93 385.71-2.93 386.92-3.06 388.13-3.2 389.23-3.42L389.23-3.42Q391.45-3.86 392.55-4.39L392.55-4.39 392.55-15.92 385.01-15.92 385.01-19.29 396.63-19.29 396.63-2.56Q394.33-0.83 388.5 0.15L388.5 0.15Q386.47 0.49 383.88 0.49 381.3 0.49 379.14-0.04 376.97-0.56 375.47-1.57 373.97-2.59 373.04-4.1 372.12-5.62 371.6-7.59L371.6-7.59Q370.77-10.91 370.77-15.78 370.77-20.65 370.94-23.47 371.12-26.29 371.62-28.58 372.12-30.86 373.02-32.59 373.92-34.33 375.39-35.5L375.39-35.5Q378.37-37.84 383.88-37.84L383.88-37.84Q390.18-37.84 394.65-36.45L394.65-36.45 395.9-36.06ZM419.33 0.49L417.82 0.49Q409.13 0.49 406.34-4.98L406.34-4.98Q404.71-8.15 404.41-13.45L404.41-13.45Q404.29-15.94 404.29-18.87 404.29-21.8 404.46-24.43 404.63-27.05 405.13-29.17 405.63-31.3 406.55-32.92 407.47-34.55 408.95-35.64L408.95-35.64Q412.03-37.84 417.82-37.84L417.82-37.84 419.33-37.84Q428.39-37.84 430.93-32.96L430.93-32.96Q432.51-29.91 432.71-24.46L432.71-24.46Q432.81-21.8 432.81-18.84 432.81-15.87 432.66-13.37 432.51-10.86 432.05-8.74 431.59-6.62 430.7-4.91 429.8-3.2 428.29-2L428.29-2Q425.17 0.49 419.33 0.49L419.33 0.49ZM417.82-3.03L419.28-3.03Q421.97-3.03 423.74-3.61 425.51-4.2 426.53-5.66L426.53-5.66Q428.44-8.37 428.44-16.06L428.44-16.06 428.44-18.7Q428.44-22.39 428.24-25.27 428.05-28.15 427.19-30.13L427.19-30.13Q425.43-34.23 419.57-34.23L419.57-34.23 417.52-34.23Q411.57-34.23 409.91-30.4L409.91-30.4Q408.86-27.95 408.76-24.63 408.66-21.31 408.66-18.7L408.66-18.7 408.66-16.06Q408.66-8.86 410.81-5.91L410.81-5.91Q412.89-3.03 417.82-3.03L417.82-3.03Z" fill="#e55472" data-fill-palette-color="primary"></path></g></svg></g></svg></g></svg></g></svg></g><g><svg viewBox="0 0 80.20941002587665 80.20941002587665" height="80.20941002587665" width="80.20941002587665"><g><svg></svg></g><g id="icon-0"><svg viewBox="0 0 80.20941002587665 80.20941002587665" height="80.20941002587665" width="80.20941002587665"><g><path d="M0 40.105c0-22.149 17.955-40.105 40.105-40.105 22.149 0 40.105 17.955 40.104 40.105 0 22.149-17.955 40.105-40.104 40.104-22.149 0-40.105-17.955-40.105-40.104zM40.105 77.006c20.38 0 36.902-16.521 36.901-36.901 0-20.38-16.521-36.902-36.901-36.902-20.38 0-36.902 16.521-36.902 36.902 0 20.38 16.521 36.902 36.902 36.901z" data-fill-palette-color="accent" fill="#e55472" stroke="transparent"></path></g><g transform="matrix(1,0,0,1,24.65396473068169,22.65328460446986)"><svg viewBox="0 0 30.90148056451327 34.90284081693693" height="34.90284081693693" width="30.90148056451327"><g><svg xmlns="http://www.w3.org/2000/svg" data-name="Glyph Icon" viewBox="7.210000038146973 4 49.58000183105469 56" x="0" y="0" height="34.90284081693693" width="30.90148056451327" class="icon-x-0" data-fill-palette-color="accent" id="x-0"><path d="M49.13 20.84l-16-9.26V4L55.7 17.05ZM32 50.52L16 41.26V22.74l16-9.26 16 9.26V41.26ZM30.91 11.58l-16 9.26L8.3 17.05 30.91 4ZM13.77 22.74V41.26L7.21 45.05V19Zm1.1 20.42l16 9.26V60L8.3 47Zm18.22 9.26l16-9.26L55.7 47 33.09 60ZM50.23 41.26V22.74L56.79 19v26.1Z" fill="#e55472" data-fill-palette-color="accent"></path></svg></g></svg></g></svg></g></svg></g></svg></g></svg><rect width="395.52" height="64.41513340786858" fill="none" stroke="none" visibility="hidden"></rect></g></svg></g></svg>